<svg xmlns="http://www.w3.org/2000/svg" width="1440" height="900"><path d="M758,484L767,356L676,470Z" fill="#45b6c4" stroke="#45b6c4" stroke-width="1.51"/><path d="M767,356L631,382L676,470Z" fill="#57bdc2" stroke="#57bdc2" stroke-width="1.51"/><path d="M767,356L663,285L631,382Z" fill="#69c3bf" stroke="#69c3bf" stroke-width="1.51"/><path d="M758,484L892,389L767,356Z" fill="#4ab1c2" stroke="#4ab1c2" stroke-width="1.51"/><path d="M752,636L849,507L758,484Z" fill="#2fa0c2" stroke="#2fa0c2" stroke-width="1.51"/><path d="M849,507L892,389L758,484Z" fill="#37a9c3" stroke="#37a9c3" stroke-width="1.51"/><path d="M767,356L811,271L663,285Z" fill="#71c2be" stroke="#71c2be" stroke-width="1.51"/><path d="M849,297L811,271L767,356Z" fill="#6dbcbe" stroke="#6dbcbe" stroke-width="1.51"/><path d="M631,382L539,526L676,470Z" fill="#56bbc2" stroke="#56bbc2" stroke-width="1.51"/><path d="M663,285L568,354L631,382Z" fill="#73c7bd" stroke="#73c7bd" stroke-width="1.51"/><path d="M892,389L849,297L767,356Z" fill="#5cb4bf" stroke="#5cb4bf" stroke-width="1.51"/><path d="M676,470L657,595L758,484Z" fill="#40acc3" stroke="#40acc3" stroke-width="1.51"/><path d="M539,526L657,595L676,470Z" fill="#4eaec0" stroke="#4eaec0" stroke-width="1.51"/><path d="M568,354L539,526L631,382Z" fill="#66c2c0" stroke="#66c2c0" stroke-width="1.51"/><path d="M657,595L752,636L758,484Z" fill="#33a1c1" stroke="#33a1c1" stroke-width="1.51"/><path d="M568,354L440,501L539,526Z" fill="#6ac2bf" stroke="#6ac2bf" stroke-width="1.51"/><path d="M663,285L573,250L568,354Z" fill="#85cebc" stroke="#85cebc" stroke-width="1.51"/><path d="M645,190L573,250L663,285Z" fill="#95d3ba" stroke="#95d3ba" stroke-width="1.51"/><path d="M811,271L645,190L663,285Z" fill="#89cdbd" stroke="#89cdbd" stroke-width="1.51"/><path d="M849,507L1007,488L892,389Z" fill="#319fc1" stroke="#319fc1" stroke-width="1.51"/><path d="M752,636L912,578L849,507Z" fill="#2795c0" stroke="#2795c0" stroke-width="1.51"/><path d="M811,271L773,133L645,190Z" fill="#94cfbc" stroke="#94cfbc" stroke-width="1.51"/><path d="M849,297L883,185L811,271Z" fill="#80bebc" stroke="#80bebc" stroke-width="1.51"/><path d="M965,259L883,185L849,297Z" fill="#7fb9bc" stroke="#7fb9bc" stroke-width="1.51"/><path d="M965,259L849,297L892,389Z" fill="#65b1be" stroke="#65b1be" stroke-width="1.51"/><path d="M573,250L479,287L568,354Z" fill="#8dd2ba" stroke="#8dd2ba" stroke-width="1.51"/><path d="M542,163L479,287L573,250Z" fill="#a4dab8" stroke="#a4dab8" stroke-width="1.51"/><path d="M1034,357L965,259L892,389Z" fill="#5ca5ba" stroke="#5ca5ba" stroke-width="1.51"/><path d="M883,185L773,133L811,271Z" fill="#90c6bc" stroke="#90c6bc" stroke-width="1.51"/><path d="M912,578L1007,488L849,507Z" fill="#2793bf" stroke="#2793bf" stroke-width="1.51"/><path d="M539,526L530,631L657,595Z" fill="#54a7bc" stroke="#54a7bc" stroke-width="1.51"/><path d="M657,595L661,746L752,636Z" fill="#3f8fb7" stroke="#3f8fb7" stroke-width="1.51"/><path d="M440,501L530,631L539,526Z" fill="#65b3be" stroke="#65b3be" stroke-width="1.51"/><path d="M414,412L440,501L568,354Z" fill="#7bc9be" stroke="#7bc9be" stroke-width="1.51"/><path d="M1007,488L1034,357L892,389Z" fill="#459cbc" stroke="#459cbc" stroke-width="1.51"/><path d="M479,287L414,412L568,354Z" fill="#88cfbb" stroke="#88cfbb" stroke-width="1.51"/><path d="M645,190L542,163L573,250Z" fill="#a4d9b8" stroke="#a4d9b8" stroke-width="1.51"/><path d="M339,304L338,358L414,412Z" fill="#a1d8b9" stroke="#a1d8b9" stroke-width="1.51"/><path d="M546,58L542,163L645,190Z" fill="#b1deb8" stroke="#b1deb8" stroke-width="1.51"/><path d="M530,631L661,746L657,595Z" fill="#4e93b6" stroke="#4e93b6" stroke-width="1.51"/><path d="M919,741L985,637L912,578Z" fill="#2377b4" stroke="#2377b4" stroke-width="1.51"/><path d="M883,185L792,84L773,133Z" fill="#9dcabb" stroke="#9dcabb" stroke-width="1.51"/><path d="M965,259L983,196L883,185Z" fill="#88b6b9" stroke="#88b6b9" stroke-width="1.51"/><path d="M1081,258L983,196L965,259Z" fill="#81aab5" stroke="#81aab5" stroke-width="1.51"/><path d="M912,578L985,637L1007,488Z" fill="#2186bb" stroke="#2186bb" stroke-width="1.51"/><path d="M1007,488L1086,424L1034,357Z" fill="#4191b8" stroke="#4191b8" stroke-width="1.51"/><path d="M919,741L912,578L752,636Z" fill="#2880b7" stroke="#2880b7" stroke-width="1.51"/><path d="M773,133L657,33L645,190Z" fill="#a8d8bb" stroke="#a8d8bb" stroke-width="1.51"/><path d="M871,21L792,84L883,185Z" fill="#a0c9be" stroke="#a0c9be" stroke-width="1.51"/><path d="M661,746L788,753L752,636Z" fill="#3980b3" stroke="#3980b3" stroke-width="1.51"/><path d="M1118,538L1086,424L1007,488Z" fill="#3285b6" stroke="#3285b6" stroke-width="1.51"/><path d="M1034,357L1081,258L965,259Z" fill="#6ea1b5" stroke="#6ea1b5" stroke-width="1.51"/><path d="M542,163L447,176L479,287Z" fill="#b2e0b7" stroke="#b2e0b7" stroke-width="1.51"/><path d="M464,82L447,176L542,163Z" fill="#bfe5b6" stroke="#bfe5b6" stroke-width="1.51"/><path d="M788,753L919,741L752,636Z" fill="#3178b2" stroke="#3178b2" stroke-width="1.51"/><path d="M530,631L555,763L661,746Z" fill="#558ab0" stroke="#558ab0" stroke-width="1.51"/><path d="M661,746L738,830L788,753Z" fill="#3d75ad" stroke="#3d75ad" stroke-width="1.51"/><path d="M416,694L555,763L530,631Z" fill="#6592b0" stroke="#6592b0" stroke-width="1.51"/><path d="M1201,372L1081,258L1034,357Z" fill="#5f91b1" stroke="#5f91b1" stroke-width="1.51"/><path d="M792,84L657,33L773,133Z" fill="#a7d5c0" stroke="#a7d5c0" stroke-width="1.51"/><path d="M335,544L362,579L440,501Z" fill="#84bebc" stroke="#84bebc" stroke-width="1.51"/><path d="M440,501L403,644L530,631Z" fill="#70adba" stroke="#70adba" stroke-width="1.51"/><path d="M339,304L414,412L479,287Z" fill="#9cd7b9" stroke="#9cd7b9" stroke-width="1.51"/><path d="M362,579L403,644L440,501Z" fill="#7db5bb" stroke="#7db5bb" stroke-width="1.51"/><path d="M335,544L440,501L414,412Z" fill="#85c6bd" stroke="#85c6bd" stroke-width="1.51"/><path d="M657,33L546,58L645,190Z" fill="#b3debc" stroke="#b3debc" stroke-width="1.51"/><path d="M341,131L339,304L447,176Z" fill="#c8e9b4" stroke="#c8e9b4" stroke-width="1.51"/><path d="M447,176L339,304L479,287Z" fill="#b3e0b7" stroke="#b3e0b7" stroke-width="1.51"/><path d="M919,741L975,741L985,637Z" fill="#2669ad" stroke="#2669ad" stroke-width="1.51"/><path d="M985,637L1118,538L1007,488Z" fill="#247fb7" stroke="#247fb7" stroke-width="1.51"/><path d="M911,858L975,741L919,741Z" fill="#2a5fa8" stroke="#2a5fa8" stroke-width="1.51"/><path d="M1144,590L1118,538L985,637Z" fill="#2371b2" stroke="#2371b2" stroke-width="1.51"/><path d="M1189,176L1097,193L1081,258Z" fill="#879cae" stroke="#879cae" stroke-width="1.51"/><path d="M338,358L335,544L414,412Z" fill="#91d0bc" stroke="#91d0bc" stroke-width="1.51"/><path d="M295,694L416,694L403,644Z" fill="#819fb0" stroke="#819fb0" stroke-width="1.51"/><path d="M685,845L738,830L661,746Z" fill="#4172a6" stroke="#4172a6" stroke-width="1.51"/><path d="M788,753L911,858L919,741Z" fill="#2f66ab" stroke="#2f66ab" stroke-width="1.51"/><path d="M295,694L403,644L362,579Z" fill="#85a9b4" stroke="#85a9b4" stroke-width="1.51"/><path d="M403,644L416,694L530,631Z" fill="#719eb3" stroke="#719eb3" stroke-width="1.51"/><path d="M792,84L747,-71L657,33Z" fill="#abd8cc" stroke="#abd8cc" stroke-width="1.51"/><path d="M1016,82L871,21L883,185Z" fill="#9dc0bc" stroke="#9dc0bc" stroke-width="1.51"/><path d="M1016,82L883,185L983,196Z" fill="#94b7b7" stroke="#94b7b7" stroke-width="1.51"/><path d="M546,58L464,82L542,163Z" fill="#bfe5b8" stroke="#bfe5b8" stroke-width="1.51"/><path d="M555,763L571,816L661,746Z" fill="#557dab" stroke="#557dab" stroke-width="1.51"/><path d="M422,857L571,816L555,763Z" fill="#5f7ca1" stroke="#5f7ca1" stroke-width="1.51"/><path d="M571,816L685,845L661,746Z" fill="#4b76a7" stroke="#4b76a7" stroke-width="1.51"/><path d="M1081,258L1097,193L983,196Z" fill="#86a4b2" stroke="#86a4b2" stroke-width="1.51"/><path d="M1201,372L1034,357L1086,424Z" fill="#4f8cb3" stroke="#4f8cb3" stroke-width="1.51"/><path d="M1097,193L1016,82L983,196Z" fill="#91abb2" stroke="#91abb2" stroke-width="1.51"/><path d="M1214,512L1201,372L1086,424Z" fill="#4080b1" stroke="#4080b1" stroke-width="1.51"/><path d="M1089,761L1144,590L985,637Z" fill="#2361aa" stroke="#2361aa" stroke-width="1.51"/><path d="M871,21L857,-23L792,84Z" fill="#a5ccc9" stroke="#a5ccc9" stroke-width="1.51"/><path d="M657,33L513,-32L546,58Z" fill="#bde4c8" stroke="#bde4c8" stroke-width="1.51"/><path d="M1021,-80L857,-23L871,21Z" fill="#a3c4cc" stroke="#a3c4cc" stroke-width="1.51"/><path d="M1214,512L1086,424L1118,538Z" fill="#347bb2" stroke="#347bb2" stroke-width="1.51"/><path d="M863,936L911,858L738,830Z" fill="#265d92" stroke="#265d92" stroke-width="1.51"/><path d="M738,830L911,858L788,753Z" fill="#3267a4" stroke="#3267a4" stroke-width="1.51"/><path d="M975,741L1089,761L985,637Z" fill="#2560a9" stroke="#2560a9" stroke-width="1.51"/><path d="M464,82L341,131L447,176Z" fill="#cdebb4" stroke="#cdebb4" stroke-width="1.51"/><path d="M339,304L237,318L338,358Z" fill="#afdfb7" stroke="#afdfb7" stroke-width="1.51"/><path d="M338,358L230,498L335,544Z" fill="#96cebc" stroke="#96cebc" stroke-width="1.51"/><path d="M857,-23L747,-71L792,84Z" fill="#a9d2ce" stroke="#a9d2ce" stroke-width="1.51"/><path d="M546,58L513,-32L464,82Z" fill="#c5e8c3" stroke="#c5e8c3" stroke-width="1.51"/><path d="M464,82L292,72L341,131Z" fill="#dbf1b6" stroke="#dbf1b6" stroke-width="1.51"/><path d="M1144,590L1214,512L1118,538Z" fill="#2b71b0" stroke="#2b71b0" stroke-width="1.51"/><path d="M1209,638L1214,512L1144,590Z" fill="#2967ac" stroke="#2967ac" stroke-width="1.51"/><path d="M696,-81L513,-32L657,33Z" fill="#b8e0cc" stroke="#b8e0cc" stroke-width="1.51"/><path d="M1004,849L1089,761L975,741Z" fill="#2852a3" stroke="#2852a3" stroke-width="1.51"/><path d="M747,-71L696,-81L657,33Z" fill="#afdcce" stroke="#afdcce" stroke-width="1.51"/><path d="M207,139L237,318L339,304Z" fill="#c9e9b4" stroke="#c9e9b4" stroke-width="1.51"/><path d="M335,544L246,593L362,579Z" fill="#8cbbba" stroke="#8cbbba" stroke-width="1.51"/><path d="M178,412L230,498L338,358Z" fill="#a3d7bb" stroke="#a3d7bb" stroke-width="1.51"/><path d="M416,694L422,857L555,763Z" fill="#6e86a9" stroke="#6e86a9" stroke-width="1.51"/><path d="M230,498L246,593L335,544Z" fill="#93c2bb" stroke="#93c2bb" stroke-width="1.51"/><path d="M911,858L1004,849L975,741Z" fill="#26569e" stroke="#26569e" stroke-width="1.51"/><path d="M246,593L295,694L362,579Z" fill="#8db0b5" stroke="#8db0b5" stroke-width="1.51"/><path d="M1097,193L1144,90L1016,82Z" fill="#97a6af" stroke="#97a6af" stroke-width="1.51"/><path d="M1016,82L1021,-80L871,21Z" fill="#a1bbc8" stroke="#a1bbc8" stroke-width="1.51"/><path d="M1263,255L1189,176L1081,258Z" fill="#8293ab" stroke="#8293ab" stroke-width="1.51"/><path d="M1263,255L1081,258L1201,372Z" fill="#6c8cad" stroke="#6c8cad" stroke-width="1.51"/><path d="M685,845L685,943L738,830Z" fill="#356994" stroke="#356994" stroke-width="1.51"/><path d="M911,858L984,978L1004,849Z" fill="#1a4c88" stroke="#1a4c88" stroke-width="1.51"/><path d="M557,955L685,943L685,845Z" fill="#3c6a8b" stroke="#3c6a8b" stroke-width="1.51"/><path d="M557,955L685,845L571,816Z" fill="#477092" stroke="#477092" stroke-width="1.51"/><path d="M1216,712L1209,638L1089,761Z" fill="#264ea1" stroke="#264ea1" stroke-width="1.51"/><path d="M1089,761L1209,638L1144,590Z" fill="#2558a6" stroke="#2558a6" stroke-width="1.51"/><path d="M1189,176L1144,90L1097,193Z" fill="#919cac" stroke="#919cac" stroke-width="1.51"/><path d="M857,-23L766,-140L747,-71Z" fill="#a9d2cf" stroke="#a9d2cf" stroke-width="1.51"/><path d="M328,814L422,857L416,694Z" fill="#7e88a7" stroke="#7e88a7" stroke-width="1.51"/><path d="M796,953L863,936L738,830Z" fill="#265e8c" stroke="#265e8c" stroke-width="1.51"/><path d="M685,943L796,953L738,830Z" fill="#2c638d" stroke="#2c638d" stroke-width="1.51"/><path d="M237,318L178,412L338,358Z" fill="#adddb8" stroke="#adddb8" stroke-width="1.51"/><path d="M64,654L199,727L246,593Z" fill="#9aabb2" stroke="#9aabb2" stroke-width="1.51"/><path d="M127,258L178,412L237,318Z" fill="#bce3b6" stroke="#bce3b6" stroke-width="1.51"/><path d="M513,-32L468,-69L464,82Z" fill="#cdebc9" stroke="#cdebc9" stroke-width="1.51"/><path d="M573,-166L468,-69L513,-32Z" fill="#c6e8c9" stroke="#c6e8c9" stroke-width="1.51"/><path d="M341,131L207,139L339,304Z" fill="#d4edb3" stroke="#d4edb3" stroke-width="1.51"/><path d="M360,-41L292,72L464,82Z" fill="#def2c0" stroke="#def2c0" stroke-width="1.51"/><path d="M1004,849L1126,808L1089,761Z" fill="#234899" stroke="#234899" stroke-width="1.51"/><path d="M1121,935L1126,808L1004,849Z" fill="#1c4089" stroke="#1c4089" stroke-width="1.51"/><path d="M696,-81L573,-166L513,-32Z" fill="#bce3cc" stroke="#bce3cc" stroke-width="1.51"/><path d="M747,-71L766,-140L696,-81Z" fill="#acd9cf" stroke="#acd9cf" stroke-width="1.51"/><path d="M860,-171L766,-140L857,-23Z" fill="#a7cfce" stroke="#a7cfce" stroke-width="1.51"/><path d="M1189,176L1252,76L1144,90Z" fill="#9898a9" stroke="#9898a9" stroke-width="1.51"/><path d="M1303,286L1263,255L1201,372Z" fill="#6982a8" stroke="#6982a8" stroke-width="1.51"/><path d="M1303,286L1201,372L1338,356Z" fill="#5c7ca5" stroke="#5c7ca5" stroke-width="1.51"/><path d="M295,694L328,814L416,694Z" fill="#8595ab" stroke="#8595ab" stroke-width="1.51"/><path d="M248,802L328,814L295,694Z" fill="#8b90a8" stroke="#8b90a8" stroke-width="1.51"/><path d="M199,727L295,694L246,593Z" fill="#91a5b0" stroke="#91a5b0" stroke-width="1.51"/><path d="M422,857L557,955L571,816Z" fill="#55748f" stroke="#55748f" stroke-width="1.51"/><path d="M685,943L775,1087L796,953Z" fill="#2a628c" stroke="#2a628c" stroke-width="1.51"/><path d="M433,973L557,955L422,857Z" fill="#5b7488" stroke="#5b7488" stroke-width="1.51"/><path d="M1144,90L1091,-15L1016,82Z" fill="#9ca8b9" stroke="#9ca8b9" stroke-width="1.51"/><path d="M1185,-34L1091,-15L1144,90Z" fill="#9da2bc" stroke="#9da2bc" stroke-width="1.51"/><path d="M1327,505L1201,372L1214,512Z" fill="#3c73ad" stroke="#3c73ad" stroke-width="1.51"/><path d="M1126,808L1216,712L1089,761Z" fill="#26479d" stroke="#26479d" stroke-width="1.51"/><path d="M1091,-15L1021,-80L1016,82Z" fill="#a0b0c4" stroke="#a0b0c4" stroke-width="1.51"/><path d="M468,-69L360,-41L464,82Z" fill="#d6efc8" stroke="#d6efc8" stroke-width="1.51"/><path d="M292,72L207,139L341,131Z" fill="#e3f4b2" stroke="#e3f4b2" stroke-width="1.51"/><path d="M202,97L207,139L292,72Z" fill="#e9f7b3" stroke="#e9f7b3" stroke-width="1.51"/><path d="M1343,179L1252,76L1189,176Z" fill="#928ea6" stroke="#928ea6" stroke-width="1.51"/><path d="M1327,505L1214,512L1359,596Z" fill="#2d63a3" stroke="#2d63a3" stroke-width="1.51"/><path d="M973,-177L860,-171L857,-23Z" fill="#a4c7cd" stroke="#a4c7cd" stroke-width="1.51"/><path d="M676,-193L573,-166L696,-81Z" fill="#b5dfcd" stroke="#b5dfcd" stroke-width="1.51"/><path d="M468,-69L465,-153L360,-41Z" fill="#d6efc8" stroke="#d6efc8" stroke-width="1.51"/><path d="M676,-193L696,-81L766,-140Z" fill="#aedbcf" stroke="#aedbcf" stroke-width="1.51"/><path d="M1359,596L1214,512L1209,638Z" fill="#2b5ea8" stroke="#2b5ea8" stroke-width="1.51"/><path d="M68,517L246,593L230,498Z" fill="#9fc8bb" stroke="#9fc8bb" stroke-width="1.51"/><path d="M860,-171L676,-193L766,-140Z" fill="#abd5ce" stroke="#abd5ce" stroke-width="1.51"/><path d="M1327,505L1338,356L1201,372Z" fill="#4875a6" stroke="#4875a6" stroke-width="1.51"/><path d="M199,727L248,802L295,694Z" fill="#9097aa" stroke="#9097aa" stroke-width="1.51"/><path d="M349,928L433,973L422,857Z" fill="#697887" stroke="#697887" stroke-width="1.51"/><path d="M207,139L127,258L237,318Z" fill="#d5eeb3" stroke="#d5eeb3" stroke-width="1.51"/><path d="M211,-51L202,97L292,72Z" fill="#eef8be" stroke="#eef8be" stroke-width="1.51"/><path d="M863,936L984,978L911,858Z" fill="#1a5289" stroke="#1a5289" stroke-width="1.51"/><path d="M1126,808L1231,835L1216,712Z" fill="#263d98" stroke="#263d98" stroke-width="1.51"/><path d="M988,1061L984,978L893,1096Z" fill="#1a4d87" stroke="#1a4d87" stroke-width="1.51"/><path d="M893,1096L863,936L796,953Z" fill="#21598b" stroke="#21598b" stroke-width="1.51"/><path d="M178,412L68,517L230,498Z" fill="#a4d2be" stroke="#a4d2be" stroke-width="1.51"/><path d="M106,169L127,258L207,139Z" fill="#e2f4b6" stroke="#e2f4b6" stroke-width="1.51"/><path d="M1343,179L1189,176L1263,255Z" fill="#868aa5" stroke="#868aa5" stroke-width="1.51"/><path d="M1091,-15L1145,-181L1021,-80Z" fill="#9eaac1" stroke="#9eaac1" stroke-width="1.51"/><path d="M1343,179L1263,255L1303,286Z" fill="#7a849f" stroke="#7a849f" stroke-width="1.51"/><path d="M360,-41L211,-51L292,72Z" fill="#ebf7c6" stroke="#ebf7c6" stroke-width="1.51"/><path d="M573,-166L465,-153L468,-69Z" fill="#c9e9c9" stroke="#c9e9c9" stroke-width="1.51"/><path d="M325,-179L465,-153L573,-166Z" fill="#d2edc8" stroke="#d2edc8" stroke-width="1.51"/><path d="M652,1089L775,1087L685,943Z" fill="#31668c" stroke="#31668c" stroke-width="1.51"/><path d="M349,928L422,857L328,814Z" fill="#757f90" stroke="#757f90" stroke-width="1.51"/><path d="M248,802L349,928L328,814Z" fill="#7f8395" stroke="#7f8395" stroke-width="1.51"/><path d="M127,258L89,392L178,412Z" fill="#b9e2bc" stroke="#b9e2bc" stroke-width="1.51"/><path d="M1021,-80L973,-177L857,-23Z" fill="#a2bfca" stroke="#a2bfca" stroke-width="1.51"/><path d="M1252,76L1185,-34L1144,90Z" fill="#9b9ab4" stroke="#9b9ab4" stroke-width="1.51"/><path d="M860,-171L973,-177L676,-193Z" fill="#a7cdce" stroke="#a7cdce" stroke-width="1.51"/><path d="M1145,-181L973,-177L1021,-80Z" fill="#a0afc4" stroke="#a0afc4" stroke-width="1.51"/><path d="M984,978L1121,935L1004,849Z" fill="#184282" stroke="#184282" stroke-width="1.51"/><path d="M1321,707L1359,596L1209,638Z" fill="#244c9a" stroke="#244c9a" stroke-width="1.51"/><path d="M1121,935L1231,835L1126,808Z" fill="#1d3886" stroke="#1d3886" stroke-width="1.51"/><path d="M1321,707L1209,638L1216,712Z" fill="#26499e" stroke="#26499e" stroke-width="1.51"/><path d="M1327,505L1455,424L1338,356Z" fill="#3b6c98" stroke="#3b6c98" stroke-width="1.51"/><path d="M1252,76L1337,47L1185,-34Z" fill="#9b92b3" stroke="#9b92b3" stroke-width="1.51"/><path d="M1467,280L1343,179L1303,286Z" fill="#707e93" stroke="#707e93" stroke-width="1.51"/><path d="M1467,280L1303,286L1338,356Z" fill="#5e7895" stroke="#5e7895" stroke-width="1.51"/><path d="M1231,835L1321,707L1216,712Z" fill="#263c97" stroke="#263c97" stroke-width="1.51"/><path d="M89,392L68,517L178,412Z" fill="#aad9c2" stroke="#aad9c2" stroke-width="1.51"/><path d="M202,97L106,169L207,139Z" fill="#eaf7b3" stroke="#eaf7b3" stroke-width="1.51"/><path d="M13,260L20,382L89,392Z" fill="#bfe5c6" stroke="#bfe5c6" stroke-width="1.51"/><path d="M89,392L20,382L68,517Z" fill="#aedbc7" stroke="#aedbc7" stroke-width="1.51"/><path d="M78,24L106,169L202,97Z" fill="#f1faba" stroke="#f1faba" stroke-width="1.51"/><path d="M984,978L1151,1057L1121,935Z" fill="#163c7e" stroke="#163c7e" stroke-width="1.51"/><path d="M652,1089L685,943L557,955Z" fill="#3e6a8b" stroke="#3e6a8b" stroke-width="1.51"/><path d="M571,1081L652,1089L557,955Z" fill="#446c8a" stroke="#446c8a" stroke-width="1.51"/><path d="M440,1081L557,955L433,973Z" fill="#5a7388" stroke="#5a7388" stroke-width="1.51"/><path d="M440,1081L571,1081L557,955Z" fill="#507089" stroke="#507089" stroke-width="1.51"/><path d="M893,1096L984,978L863,936Z" fill="#1a528a" stroke="#1a528a" stroke-width="1.51"/><path d="M1263,941L1298,866L1231,835Z" fill="#192a7a" stroke="#192a7a" stroke-width="1.51"/><path d="M325,-179L211,-51L360,-41Z" fill="#eaf7c6" stroke="#eaf7c6" stroke-width="1.51"/><path d="M775,1087L893,1096L796,953Z" fill="#245c8c" stroke="#245c8c" stroke-width="1.51"/><path d="M798,1162L893,1096L775,1087Z" fill="#245c8c" stroke="#245c8c" stroke-width="1.51"/><path d="M68,517L64,654L246,593Z" fill="#9ebdbe" stroke="#9ebdbe" stroke-width="1.51"/><path d="M199,727L125,871L248,802Z" fill="#948ea2" stroke="#948ea2" stroke-width="1.51"/><path d="M248,802L236,962L349,928Z" fill="#797f87" stroke="#797f87" stroke-width="1.51"/><path d="M13,260L89,392L127,258Z" fill="#c9e9c1" stroke="#c9e9c1" stroke-width="1.51"/><path d="M68,517L21,654L64,654Z" fill="#a0bac3" stroke="#a0bac3" stroke-width="1.51"/><path d="M1343,179L1337,47L1252,76Z" fill="#928c9f" stroke="#928c9f" stroke-width="1.51"/><path d="M1185,-34L1145,-181L1091,-15Z" fill="#9ea2bf" stroke="#9ea2bf" stroke-width="1.51"/><path d="M64,654L80,729L199,727Z" fill="#9ba3b4" stroke="#9ba3b4" stroke-width="1.51"/><path d="M465,-153L325,-179L360,-41Z" fill="#dff2c7" stroke="#dff2c7" stroke-width="1.51"/><path d="M676,-193L325,-179L573,-166Z" fill="#c5e7c9" stroke="#c5e7c9" stroke-width="1.51"/><path d="M355,1097L440,1081L433,973Z" fill="#677887" stroke="#677887" stroke-width="1.51"/><path d="M683,1202L775,1087L652,1089Z" fill="#31668c" stroke="#31668c" stroke-width="1.51"/><path d="M355,1097L433,973L349,928Z" fill="#6d7a87" stroke="#6d7a87" stroke-width="1.51"/><path d="M1231,835L1298,866L1321,707Z" fill="#21318c" stroke="#21318c" stroke-width="1.51"/><path d="M1321,707L1447,637L1359,596Z" fill="#1e478d" stroke="#1e478d" stroke-width="1.51"/><path d="M1263,941L1231,835L1121,935Z" fill="#172e78" stroke="#172e78" stroke-width="1.51"/><path d="M1485,487L1327,505L1359,596Z" fill="#265d94" stroke="#265d94" stroke-width="1.51"/><path d="M1485,487L1455,424L1327,505Z" fill="#2c638f" stroke="#2c638f" stroke-width="1.51"/><path d="M1343,179L1448,151L1337,47Z" fill="#888691" stroke="#888691" stroke-width="1.51"/><path d="M1246,-188L1145,-181L1185,-34Z" fill="#9e9cbc" stroke="#9e9cbc" stroke-width="1.51"/><path d="M973,-177L1246,-188L676,-193Z" fill="#a2bcc9" stroke="#a2bcc9" stroke-width="1.51"/><path d="M-6,154L13,260L106,169Z" fill="#e7f6c2" stroke="#e7f6c2" stroke-width="1.51"/><path d="M106,169L13,260L127,258Z" fill="#def2bd" stroke="#def2bd" stroke-width="1.51"/><path d="M125,871L236,962L248,802Z" fill="#84838c" stroke="#84838c" stroke-width="1.51"/><path d="M64,654L21,654L80,729Z" fill="#9da9bc" stroke="#9da9bc" stroke-width="1.51"/><path d="M80,729L125,871L199,727Z" fill="#9993ac" stroke="#9993ac" stroke-width="1.51"/><path d="M-35,542L21,654L68,517Z" fill="#a2c4cb" stroke="#a2c4cb" stroke-width="1.51"/><path d="M-35,542L68,517L20,382Z" fill="#aad4cd" stroke="#aad4cd" stroke-width="1.51"/><path d="M564,1176L652,1089L571,1081Z" fill="#446c8a" stroke="#446c8a" stroke-width="1.51"/><path d="M683,1202L798,1162L775,1087Z" fill="#2a628c" stroke="#2a628c" stroke-width="1.51"/><path d="M1134,1158L1151,1057L988,1061Z" fill="#163b7e" stroke="#163b7e" stroke-width="1.51"/><path d="M1151,1057L984,978L988,1061Z" fill="#184281" stroke="#184281" stroke-width="1.51"/><path d="M1186,1048L1263,941L1121,935Z" fill="#173079" stroke="#173079" stroke-width="1.51"/><path d="M1455,424L1467,280L1338,356Z" fill="#4a6f8d" stroke="#4a6f8d" stroke-width="1.51"/><path d="M1460,719L1321,707L1417,817Z" fill="#1b327f" stroke="#1b327f" stroke-width="1.51"/><path d="M1460,719L1447,637L1321,707Z" fill="#193c83" stroke="#193c83" stroke-width="1.51"/><path d="M1455,424L1522,429L1467,280Z" fill="#436c8a" stroke="#436c8a" stroke-width="1.51"/><path d="M13,850L125,871L80,729Z" fill="#968ea9" stroke="#968ea9" stroke-width="1.51"/><path d="M211,-51L121,-38L202,97Z" fill="#f6fcc5" stroke="#f6fcc5" stroke-width="1.51"/><path d="M116,-152L121,-38L211,-51Z" fill="#f8fcc9" stroke="#f8fcc9" stroke-width="1.51"/><path d="M121,-38L78,24L202,97Z" fill="#f7fcc5" stroke="#f7fcc5" stroke-width="1.51"/><path d="M1447,637L1485,487L1359,596Z" fill="#1b538b" stroke="#1b538b" stroke-width="1.51"/><path d="M903,1169L988,1061L893,1096Z" fill="#1a5189" stroke="#1a5189" stroke-width="1.51"/><path d="M1467,280L1448,151L1343,179Z" fill="#767e8a" stroke="#767e8a" stroke-width="1.51"/><path d="M1337,47L1307,-94L1185,-34Z" fill="#9b92b5" stroke="#9b92b5" stroke-width="1.51"/><path d="M798,1162L903,1169L893,1096Z" fill="#1f588b" stroke="#1f588b" stroke-width="1.51"/><path d="M21,654L-15,767L80,729Z" fill="#9da1bc" stroke="#9da1bc" stroke-width="1.51"/><path d="M-105,372L-35,542L20,382Z" fill="#b0dcce" stroke="#b0dcce" stroke-width="1.51"/><path d="M1430,-79L1307,-94L1337,47Z" fill="#928ba7" stroke="#928ba7" stroke-width="1.51"/><path d="M440,1081L564,1176L571,1081Z" fill="#507089" stroke="#507089" stroke-width="1.51"/><path d="M243,1063L355,1097L349,928Z" fill="#757d87" stroke="#757d87" stroke-width="1.51"/><path d="M243,1063L349,928L236,962Z" fill="#797e87" stroke="#797e87" stroke-width="1.51"/><path d="M435,1188L564,1176L440,1081Z" fill="#597388" stroke="#597388" stroke-width="1.51"/><path d="M798,1162L683,1202L903,1169Z" fill="#265e8c" stroke="#265e8c" stroke-width="1.51"/><path d="M325,-179L207,-160L211,-51Z" fill="#eff9c5" stroke="#eff9c5" stroke-width="1.51"/><path d="M13,260L-105,372L20,382Z" fill="#c2e6ca" stroke="#c2e6ca" stroke-width="1.51"/><path d="M78,24L-6,154L106,169Z" fill="#f3fbbf" stroke="#f3fbbf" stroke-width="1.51"/><path d="M1151,1057L1186,1048L1121,935Z" fill="#17347b" stroke="#17347b" stroke-width="1.51"/><path d="M1218,1141L1186,1048L1151,1057Z" fill="#173179" stroke="#173179" stroke-width="1.51"/><path d="M564,1176L683,1202L652,1089Z" fill="#3e6a8b" stroke="#3e6a8b" stroke-width="1.51"/><path d="M1447,637L1542,594L1485,487Z" fill="#1a5289" stroke="#1a5289" stroke-width="1.51"/><path d="M1417,817L1321,707L1298,866Z" fill="#1d2d83" stroke="#1d2d83" stroke-width="1.51"/><path d="M1304,961L1298,866L1263,941Z" fill="#142671" stroke="#142671" stroke-width="1.51"/><path d="M1186,1048L1304,961L1263,941Z" fill="#172976" stroke="#172976" stroke-width="1.51"/><path d="M1485,487L1522,429L1455,424Z" fill="#2f668d" stroke="#2f668d" stroke-width="1.51"/><path d="M1543,75L1466,85L1448,151Z" fill="#838287" stroke="#838287" stroke-width="1.51"/><path d="M1586,498L1522,429L1485,487Z" fill="#2a628c" stroke="#2a628c" stroke-width="1.51"/><path d="M1420,975L1417,817L1298,866Z" fill="#0f2265" stroke="#0f2265" stroke-width="1.51"/><path d="M1307,-94L1246,-188L1185,-34Z" fill="#9d95b9" stroke="#9d95b9" stroke-width="1.51"/><path d="M1145,-181L1246,-188L973,-177Z" fill="#9ea5c0" stroke="#9ea5c0" stroke-width="1.51"/><path d="M78,24L27,19L-6,154Z" fill="#f9fdca" stroke="#f9fdca" stroke-width="1.51"/><path d="M23,-59L27,19L78,24Z" fill="#fdfed4" stroke="#fdfed4" stroke-width="1.51"/><path d="M23,-59L78,24L121,-38Z" fill="#fcfed1" stroke="#fcfed1" stroke-width="1.51"/><path d="M355,1097L435,1188L440,1081Z" fill="#677887" stroke="#677887" stroke-width="1.51"/><path d="M93,1088L243,1063L236,962Z" fill="#828186" stroke="#828186" stroke-width="1.51"/><path d="M1448,151L1466,85L1337,47Z" fill="#86848d" stroke="#86848d" stroke-width="1.51"/><path d="M1307,-94L1366,-166L1246,-188Z" fill="#988fb0" stroke="#988fb0" stroke-width="1.51"/><path d="M1580,150L1448,151L1467,280Z" fill="#767d87" stroke="#767d87" stroke-width="1.51"/><path d="M125,871L69,947L236,962Z" fill="#84828a" stroke="#84828a" stroke-width="1.51"/><path d="M-135,693L-15,767L21,654Z" fill="#9ea4c0" stroke="#9ea4c0" stroke-width="1.51"/><path d="M337,1215L435,1188L355,1097Z" fill="#6d7a87" stroke="#6d7a87" stroke-width="1.51"/><path d="M564,1176L435,1188L683,1202Z" fill="#496e89" stroke="#496e89" stroke-width="1.51"/><path d="M903,1169L1015,1199L988,1061Z" fill="#194b86" stroke="#194b86" stroke-width="1.51"/><path d="M1186,1048L1360,1038L1304,961Z" fill="#152771" stroke="#152771" stroke-width="1.51"/><path d="M683,1202L1015,1199L903,1169Z" fill="#1f588b" stroke="#1f588b" stroke-width="1.51"/><path d="M-126,260L-105,372L13,260Z" fill="#ceebc9" stroke="#ceebc9" stroke-width="1.51"/><path d="M-35,542L-92,583L21,654Z" fill="#a2bfcb" stroke="#a2bfcb" stroke-width="1.51"/><path d="M-90,165L13,260L-6,154Z" fill="#e9f6c6" stroke="#e9f6c6" stroke-width="1.51"/><path d="M1537,714L1447,637L1460,719Z" fill="#17397d" stroke="#17397d" stroke-width="1.51"/><path d="M1537,714L1542,594L1447,637Z" fill="#184282" stroke="#184282" stroke-width="1.51"/><path d="M-15,767L13,850L80,729Z" fill="#9c94b6" stroke="#9c94b6" stroke-width="1.51"/><path d="M-18,-196L116,-152L207,-160Z" fill="#fafdce" stroke="#fafdce" stroke-width="1.51"/><path d="M207,-160L116,-152L211,-51Z" fill="#f6fcc5" stroke="#f6fcc5" stroke-width="1.51"/><path d="M-130,536L-92,583L-35,542Z" fill="#a4c8cd" stroke="#a4c8cd" stroke-width="1.51"/><path d="M-101,914L-4,932L13,850Z" fill="#8a8498" stroke="#8a8498" stroke-width="1.51"/><path d="M13,850L69,947L125,871Z" fill="#888494" stroke="#888494" stroke-width="1.51"/><path d="M1015,1199L1134,1158L988,1061Z" fill="#174181" stroke="#174181" stroke-width="1.51"/><path d="M116,-152L23,-59L121,-38Z" fill="#fbfed0" stroke="#fbfed0" stroke-width="1.51"/><path d="M-105,63L-90,165L-6,154Z" fill="#f4fbc5" stroke="#f4fbc5" stroke-width="1.51"/><path d="M-105,63L-6,154L27,19Z" fill="#f9fdcb" stroke="#f9fdcb" stroke-width="1.51"/><path d="M1466,85L1430,-79L1337,47Z" fill="#8b879a" stroke="#8b879a" stroke-width="1.51"/><path d="M1527,875L1537,714L1460,719Z" fill="#172c77" stroke="#172c77" stroke-width="1.51"/><path d="M1527,875L1460,719L1417,817Z" fill="#152771" stroke="#152771" stroke-width="1.51"/><path d="M1420,975L1298,866L1304,961Z" fill="#102368" stroke="#102368" stroke-width="1.51"/><path d="M1522,429L1600,286L1467,280Z" fill="#4e7089" stroke="#4e7089" stroke-width="1.51"/><path d="M1466,85L1524,-22L1430,-79Z" fill="#898498" stroke="#898498" stroke-width="1.51"/><path d="M1542,594L1586,498L1485,487Z" fill="#225a8b" stroke="#225a8b" stroke-width="1.51"/><path d="M1537,714L1586,498L1542,594Z" fill="#1a4c87" stroke="#1a4c87" stroke-width="1.51"/><path d="M1430,-79L1366,-166L1307,-94Z" fill="#918aa5" stroke="#918aa5" stroke-width="1.51"/><path d="M-92,583L-135,693L21,654Z" fill="#a0b2c5" stroke="#a0b2c5" stroke-width="1.51"/><path d="M-105,372L-130,536L-35,542Z" fill="#aad4cf" stroke="#aad4cf" stroke-width="1.51"/><path d="M-126,260L-130,536L-105,372Z" fill="#b8e0cc" stroke="#b8e0cc" stroke-width="1.51"/><path d="M-90,165L-126,260L13,260Z" fill="#e2f4c6" stroke="#e2f4c6" stroke-width="1.51"/><path d="M1134,1158L1218,1141L1151,1057Z" fill="#17337a" stroke="#17337a" stroke-width="1.51"/><path d="M1352,1217L1218,1141L1134,1158Z" fill="#172b77" stroke="#172b77" stroke-width="1.51"/><path d="M1586,498L1600,286L1522,429Z" fill="#3c698b" stroke="#3c698b" stroke-width="1.51"/><path d="M1580,150L1543,75L1448,151Z" fill="#818086" stroke="#818086" stroke-width="1.51"/><path d="M1218,1141L1360,1038L1186,1048Z" fill="#172976" stroke="#172976" stroke-width="1.51"/><path d="M195,1157L337,1215L355,1097Z" fill="#777d87" stroke="#777d87" stroke-width="1.51"/><path d="M435,1188L337,1215L683,1202Z" fill="#587388" stroke="#587388" stroke-width="1.51"/><path d="M683,1202L1352,1217L1015,1199Z" fill="#184583" stroke="#184583" stroke-width="1.51"/><path d="M195,1157L355,1097L243,1063Z" fill="#7a7e86" stroke="#7a7e86" stroke-width="1.51"/><path d="M1360,1038L1420,975L1304,961Z" fill="#0f2265" stroke="#0f2265" stroke-width="1.51"/><path d="M1600,286L1580,150L1467,280Z" fill="#6c7a87" stroke="#6c7a87" stroke-width="1.51"/><path d="M93,1088L195,1157L243,1063Z" fill="#838187" stroke="#838187" stroke-width="1.51"/><path d="M13,850L-4,932L69,947Z" fill="#888495" stroke="#888495" stroke-width="1.51"/><path d="M-106,845L13,850L-15,767Z" fill="#978faf" stroke="#978faf" stroke-width="1.51"/><path d="M-87,-25L-105,63L27,19Z" fill="#feffd5" stroke="#feffd5" stroke-width="1.51"/><path d="M-90,165L-105,63L-126,260Z" fill="#eef8c5" stroke="#eef8c5" stroke-width="1.51"/><path d="M-87,-25L27,19L23,-59Z" fill="#ffffd9" stroke="#ffffd9" stroke-width="1.51"/><path d="M-130,536L-135,693L-92,583Z" fill="#a2bcc9" stroke="#a2bcc9" stroke-width="1.51"/><path d="M-126,260L-135,693L-130,536Z" fill="#a9d2ce" stroke="#a9d2ce" stroke-width="1.51"/><path d="M1549,-163L1524,-22L1543,75Z" fill="#898498" stroke="#898498" stroke-width="1.51"/><path d="M1543,75L1524,-22L1466,85Z" fill="#878391" stroke="#878391" stroke-width="1.51"/><path d="M1430,-79L1448,-187L1366,-166Z" fill="#8c869c" stroke="#8c869c" stroke-width="1.51"/><path d="M93,1088L236,962L69,947Z" fill="#85828b" stroke="#85828b" stroke-width="1.51"/><path d="M1537,714L1582,965L1586,498Z" fill="#17337b" stroke="#17337b" stroke-width="1.51"/><path d="M1420,975L1527,875L1417,817Z" fill="#091e5b" stroke="#091e5b" stroke-width="1.51"/><path d="M1582,965L1527,875L1420,975Z" fill="#081d58" stroke="#081d58" stroke-width="1.51"/><path d="M-38,1036L93,1088L69,947Z" fill="#888394" stroke="#888394" stroke-width="1.51"/><path d="M-18,-196L-87,-25L23,-59Z" fill="#ffffd9" stroke="#ffffd9" stroke-width="1.51"/><path d="M-4,932L-38,1036L69,947Z" fill="#898497" stroke="#898497" stroke-width="1.51"/><path d="M-135,693L-106,845L-15,767Z" fill="#9d97ba" stroke="#9d97ba" stroke-width="1.51"/><path d="M1549,-163L1448,-187L1430,-79Z" fill="#898498" stroke="#898498" stroke-width="1.51"/><path d="M1366,-166L1448,-187L1246,-188Z" fill="#938ba7" stroke="#938ba7" stroke-width="1.51"/><path d="M1246,-188L-107,-206L676,-193Z" fill="#bae2cc" stroke="#bae2cc" stroke-width="1.51"/><path d="M1360,1038L1455,1046L1420,975Z" fill="#0a1e5c" stroke="#0a1e5c" stroke-width="1.51"/><path d="M1467,1139L1455,1046L1360,1038Z" fill="#091e5a" stroke="#091e5a" stroke-width="1.51"/><path d="M116,-152L-18,-196L23,-59Z" fill="#fdfed4" stroke="#fdfed4" stroke-width="1.51"/><path d="M325,-179L-18,-196L207,-160Z" fill="#f7fcc6" stroke="#f7fcc6" stroke-width="1.51"/><path d="M-107,-206L-18,-196L325,-179Z" fill="#fcfed1" stroke="#fcfed1" stroke-width="1.51"/><path d="M-106,845L-101,914L13,850Z" fill="#8f88a1" stroke="#8f88a1" stroke-width="1.51"/><path d="M-149,1082L-101,914L-106,845Z" fill="#898498" stroke="#898498" stroke-width="1.51"/><path d="M-101,914L-38,1036L-4,932Z" fill="#898498" stroke="#898498" stroke-width="1.51"/><path d="M93,1088L85,1195L195,1157Z" fill="#85828b" stroke="#85828b" stroke-width="1.51"/><path d="M1600,286L1549,-163L1580,150Z" fill="#84828a" stroke="#84828a" stroke-width="1.51"/><path d="M1580,150L1549,-163L1543,75Z" fill="#888495" stroke="#888495" stroke-width="1.51"/><path d="M1524,-22L1549,-163L1430,-79Z" fill="#898498" stroke="#898498" stroke-width="1.51"/><path d="M195,1157L85,1195L337,1215Z" fill="#808086" stroke="#808086" stroke-width="1.51"/><path d="M21,1200L85,1195L93,1088Z" fill="#878391" stroke="#878391" stroke-width="1.51"/><path d="M1218,1141L1352,1217L1360,1038Z" fill="#13256d" stroke="#13256d" stroke-width="1.51"/><path d="M1015,1199L1352,1217L1134,1158Z" fill="#17337a" stroke="#17337a" stroke-width="1.51"/><path d="M337,1215L1352,1217L683,1202Z" fill="#275e8c" stroke="#275e8c" stroke-width="1.51"/><path d="M1527,875L1582,965L1537,714Z" fill="#0f2264" stroke="#0f2264" stroke-width="1.51"/><path d="M1586,498L1582,965L1600,286Z" fill="#1a5089" stroke="#1a5089" stroke-width="1.51"/><path d="M1455,1046L1582,965L1420,975Z" fill="#081d58" stroke="#081d58" stroke-width="1.51"/><path d="M1560,1043L1582,965L1455,1046Z" fill="#081d58" stroke="#081d58" stroke-width="1.51"/><path d="M1352,1217L1467,1139L1360,1038Z" fill="#0c205f" stroke="#0c205f" stroke-width="1.51"/><path d="M-18,-196L-107,-206L-87,-25Z" fill="#ffffd9" stroke="#ffffd9" stroke-width="1.51"/><path d="M-87,-25L-107,-206L-105,63Z" fill="#ffffd9" stroke="#ffffd9" stroke-width="1.51"/><path d="M-105,63L-107,-206L-126,260Z" fill="#fcfed2" stroke="#fcfed2" stroke-width="1.51"/><path d="M676,-193L-107,-206L325,-179Z" fill="#eaf7c6" stroke="#eaf7c6" stroke-width="1.51"/><path d="M1448,-187L-107,-206L1246,-188Z" fill="#a6cbce" stroke="#a6cbce" stroke-width="1.51"/><path d="M1467,1139L1560,1043L1455,1046Z" fill="#081d58" stroke="#081d58" stroke-width="1.51"/><path d="M-38,1036L21,1200L93,1088Z" fill="#898495" stroke="#898495" stroke-width="1.51"/><path d="M85,1195L21,1200L337,1215Z" fill="#848289" stroke="#848289" stroke-width="1.51"/><path d="M-154,1162L21,1200L-38,1036Z" fill="#898498" stroke="#898498" stroke-width="1.51"/><path d="M-101,914L-149,1082L-38,1036Z" fill="#898498" stroke="#898498" stroke-width="1.51"/><path d="M-135,693L-149,1082L-106,845Z" fill="#8e88a0" stroke="#8e88a0" stroke-width="1.51"/><path d="M-154,1162L-149,1082L-135,693Z" fill="#898498" stroke="#898498" stroke-width="1.51"/><path d="M-149,1082L-154,1162L-38,1036Z" fill="#898498" stroke="#898498" stroke-width="1.51"/><path d="M-126,260L-154,1162L-135,693Z" fill="#9ea4c0" stroke="#9ea4c0" stroke-width="1.51"/><path d="M1467,1139L1580,1217L1560,1043Z" fill="#081d58" stroke="#081d58" stroke-width="1.51"/><path d="M1560,1043L1580,1217L1582,965Z" fill="#081d58" stroke="#081d58" stroke-width="1.51"/><path d="M1582,965L1580,1217L1600,286Z" fill="#12256c" stroke="#12256c" stroke-width="1.51"/><path d="M1352,1217L1580,1217L1467,1139Z" fill="#081d58" stroke="#081d58" stroke-width="1.51"/></svg>